<svg xmlns="http://www.w3.org/2000/svg" xmlns:xlink="http://www.w3.org/1999/xlink" version="1.1" x="0px" y="0px" viewBox="0 0 128 160" style="fill: #eee;enable-background:new 0 0 128 128;" xml:space="preserve"><path d="M83.466,75.077c1.484,2.104,3.682,3.355,6.525,3.763v3.167c0,1.101,0.894,1.993,2,1.993c1.104,0,2-0.893,2-1.993v-3.138  c1.643-0.225,3.232-0.751,4.635-1.64c1.703-1.079,3.043-2.831,3.293-4.831c0.484-3.868-1.783-7.136-5.537-8.223  c-0.793-0.229-1.59-0.464-2.391-0.688v-7.426c0.711,0.206,1.381,0.498,1.94,0.889c0.963,0.674,1.602,1.724,2.027,2.785  c0.326,0.809,0.936,1.69,1.852,1.906c0.941,0.223,1.994-0.356,2.143-1.345c0.188-1.265-0.283-2.68-1.441-4.324  c-0.719-1.017-1.59-1.834-2.588-2.43c-1.197-0.713-2.545-1.145-3.932-1.363v-4.186c0-1.102-0.896-1.994-2-1.994  c-1.106,0-2,0.893-2,1.994v4.118c-0.35,0.051-0.697,0.121-1.033,0.212c-2.832,0.774-5.484,2.541-6.137,5.508  c-0.455,2.07-0.223,4.456,1.291,6.071c1.529,1.632,3.748,2.263,5.879,2.808v8.273c-1.252-0.389-2.354-1.041-3.012-1.915  c-0.68-0.904-0.934-2.044-1.662-2.921c-0.793-0.957-2.473-1.121-3.086,0.075c-0.467,0.911-0.178,2.228,0.229,3.113  C82.735,73.935,83.085,74.534,83.466,75.077z M93.991,67.646c0.387,0.106,0.769,0.222,1.143,0.358  c2.434,0.891,3.545,3.608,1.834,5.693c-0.701,0.854-1.775,1.359-2.977,1.571V67.646z M87.034,60.622  c-1.215-2.002,0.77-4.089,2.629-4.634c0.106-0.031,0.219-0.049,0.328-0.074v6.607C88.786,62.191,87.688,61.695,87.034,60.622z"/><path d="M62.064,73.048c0.925,13.602,14.234,20.259,26.359,20.898c1.3,0.069,7.768,0.073,9.138,0  c12.127-0.64,25.434-7.297,26.358-20.898c0.776-11.359-4.774-20.527-11.492-29.136c-3.585-4.595-8.198-9.13-11.52-13.912H85.076  c-3.321,4.782-7.935,9.317-11.52,13.912C66.841,52.521,61.288,61.688,62.064,73.048z M87.079,33.943h11.825  c1.782,2.357,8.996,10.57,10.422,12.398c5.957,7.633,11.371,16.118,10.666,26.438c-0.756,11.115-11.913,16.661-22.639,17.228  c-1.363,0.072-7.383,0.071-8.621,0.005l-0.102-0.005c-10.724-0.566-21.883-6.112-22.64-17.23  c-0.705-10.315,4.712-18.802,10.668-26.438C78.084,44.514,85.298,36.301,87.079,33.943z"/><path d="M83.991,22c-1.104,0-2,0.896-2,2s0.896,2,2,2h18c1.104,0,2-0.896,2-2s-0.896-2-2-2H83.991z"/><path d="M101.96,0c-2.541,0-3.693,2.898-5.838,3.788c-0.633,0.263-1.348,0.314-2.009,0.14c-1.166-0.309-1.512-1.891-2.51-2.433  c-1.424-0.772-2.433,1.151-3.272,1.953c-0.88,0.84-2.026,1.31-3.203,0.805c-1.17-0.499-2.121-1.509-3.347-1.864  c-0.893-0.259-1.747,0.491-1.788,1.354c-0.051,1.045,0.839,1.932,1.392,2.728c0,0,2.366,3.102,3.706,11.529H98.08  c0.531-3.916,1.607-7.789,3.356-11.208c0.727-1.423,3.072-3.94,2.451-5.77C103.634,0.279,102.704,0,101.96,0z M94.721,14h-6.315  c-0.504-2.281-1.07-4.113-1.613-5.556c1.117-0.113,2.564-0.561,4.033-1.857c1.56,1.355,3.787,1.737,5.763,1.226  C95.815,9.751,95.191,11.818,94.721,14z"/><path d="M119.94,98.207c-0.214,0.034-21.546,4.041-34.242,6.426c-1.086,0.204-1.801,1.249-1.597,2.336  c0.204,1.085,1.245,1.801,2.335,1.597c11.593-2.179,33.651-6.321,34.12-6.405c1.151-0.178,2.995-0.013,3.328,1.176  c0.989,3.523-6.465,6.527-10.048,7.973c-0.543,0.219-20.689,8.217-26.989,10.222c-9.258,2.945-16.643,3.271-23.235,1.022  c-4.067-1.388-21.666-10.797-27.023-12.214c-3.215-0.852-6.2-0.701-8.632,0.431c-0.046,0.021-3.959,2.217-3.959,2.217V92.553  l12.149-3.625c0.102-0.033,10.107-3.114,19.606,2.146c0,0,11.442,6.398,11.948,6.665c2.356,1.247,7.877,4.169,8.554,6.888  c0.096,0.386,0.141,0.926-0.36,1.666c-0.815,0.786-4.546,0.759-17.721-3.823c-1.82-0.633-3.134-1.091-3.949-1.294  c-1.074-0.267-2.157,0.387-2.424,1.46c-0.266,1.072,0.387,2.157,1.459,2.424c0.639,0.158,2.012,0.636,3.601,1.188  c10.578,3.679,19.558,6.394,22.331,2.309c1.035-1.525,1.362-3.22,0.945-4.896c-1.108-4.453-7.261-7.709-10.566-9.458  c-0.457-0.241-11.881-6.628-11.881-6.628c-10.99-6.085-22.276-2.61-22.719-2.471l-10.974,3.274v-0.459  c0-4.373-3.581-7.918-7.999-7.918H0v46.918h15.998c4.418,0,7.999-3.545,7.999-7.918v-1.426l5.71-3.206  c1.975-0.891,4.272-0.581,5.858-0.161c4.905,1.297,22.38,10.639,26.755,12.132c3.245,1.106,6.698,1.661,10.404,1.661  c4.682,0,9.766-0.885,15.335-2.657c6.397-2.036,26.757-10.117,27.272-10.324c5.019-2.023,14.361-5.791,12.402-12.765  C126.763,98.796,123.014,97.733,119.94,98.207z M20,119.092c0,2.16-1.795,3.917-4,3.917H4V84h12c2.205,0,4,1.757,4,3.917V119.092z"/><text x="0" y="143" fill="#000000" font-size="10px" font-weight="bold" font-family="'Helvetica Neue', Helvetica, Arial-Unicode, Arial, Sans-serif">Created by priyanka</text></svg>