<svg xmlns="http://www.w3.org/2000/svg" data-name="Layer 1" viewBox="0 0 128 160" style="fill: #eee;" x="0px" y="0px"><title>Miscellaneous 30 final..</title><path d="M2,122H126a2,2,0,0,0,0-4H99s0-.08,0-.12c-.77-12.6-13.7-18.08-20.39-19.21a7.27,7.27,0,0,1-5.53-5,21.09,21.09,0,0,0,4.5-4.7,11,11,0,0,0,3.23.5A11.21,11.21,0,0,0,92,78.3V70.63A25.65,25.65,0,0,0,66.38,45H61.63A25.65,25.65,0,0,0,36,70.63V78.3A11.21,11.21,0,0,0,47.2,89.5a11,11,0,0,0,2.72-.35,19.42,19.42,0,0,0,4.84,5,7.12,7.12,0,0,1-5.32,4.53C42.7,99.8,29.77,105.27,29,117.88c0,0,0,.08,0,.12H2a2,2,0,0,0,0,4ZM47.2,85.5A7.21,7.21,0,0,1,40,78.3V70.63A21.65,21.65,0,0,1,61.63,49h4.75A21.65,21.65,0,0,1,88,70.63V78.3a7.21,7.21,0,0,1-7.2,7.2,7,7,0,0,1-1.08-.09A46.65,46.65,0,0,0,84,70.56a4,4,0,0,0-2.55-4.27c-2.92-1.12-11.1-5.28-13.81-11A4,4,0,0,0,64,53h-.05a4,4,0,0,0-3.61,2.39c-1.5,3.4-6,8.28-13.61,10.85a4,4,0,0,0-2.72,4,47.78,47.78,0,0,0,2.72,12.67c.34.89.7,1.74,1.09,2.55C47.62,85.49,47.41,85.5,47.2,85.5ZM48,70c9.52-3.2,14.34-9.3,16-13,4,8.48,16,13,16,13C76.95,92.68,65,93,64.3,93H64C49.28,93,48,70,48,70Zm2.14,32.57A11.13,11.13,0,0,0,58.31,96,16.11,16.11,0,0,0,64,97h.34a13.78,13.78,0,0,0,5.29-1.24,11.2,11.2,0,0,0,8.31,6.85c.16,0,16.22,2.88,17.09,15.39H33C33.87,105.54,49.44,102.72,50.14,102.6Z"/><path d="M124,48.57h-5.46L116.82,43a4,4,0,0,0-7.64,0l-1.73,5.58H102a4,4,0,0,0-2.43,7.18l4.58,3.5L102.38,65a4,4,0,0,0,6.25,4.36L113,66l4.37,3.34A4,4,0,0,0,123.62,65l-1.77-5.74,4.52-3.45A4,4,0,0,0,124,48.57Zm-6.8,9.19,2.6,8.4L113,61l-6.8,5.19,2.6-8.4L102,52.57h8.4l2.6-8.4,2.6,8.4H124Z"/><path d="M50.57,19.58l4.58,3.5-1.77,5.74a4,4,0,0,0,6.25,4.36L64,29.84l4.37,3.34a4,4,0,0,0,6.25-4.36l-1.77-5.74,4.52-3.45A4,4,0,0,0,75,12.4H69.55L67.82,6.82a4,4,0,0,0-7.64,0L58.45,12.4H53a4,4,0,0,0-2.43,7.18ZM61.4,16.4,64,8l2.6,8.4H75L68.2,21.6,70.8,30,64,24.81,57.2,30l2.6-8.4L53,16.4Z"/><path d="M1.57,55.75l4.58,3.5L4.38,65a4,4,0,0,0,6.25,4.36L15,66l4.37,3.34A4,4,0,0,0,25.62,65l-1.77-5.74,4.52-3.45A4,4,0,0,0,26,48.57H20.55L18.82,43a4,4,0,0,0-7.64,0L9.45,48.57H4a4,4,0,0,0-2.43,7.18ZM12.4,52.57l2.6-8.4,2.6,8.4H26l-6.8,5.19,2.6,8.4L15,61,8.2,66.17l2.6-8.4L4,52.57Z"/><path d="M57.83,88.34l.78.56a9.4,9.4,0,0,0,10.48,0l1.08-.78a2,2,0,0,0-2.34-3.24l-1.08.78a5.66,5.66,0,0,1-5.8,0l-.78-.56a2,2,0,1,0-2.34,3.24Z"/></svg>