<svg xmlns="http://www.w3.org/2000/svg" xmlns:xlink="http://www.w3.org/1999/xlink" version="1.1" x="0px" y="0px" viewBox="0 0 64 80" style="enable-background:new 0 0 64 64;" xml:space="preserve"><g><path d="M37,11.487V9h6V1H21v8h6v2.487C15.048,13.826,6,24.373,6,37c0,14.337,11.664,26,26,26s26-11.663,26-26   C58,24.373,48.952,13.826,37,11.487z M23,3h2v2h2V3h2v2h2V3h2v2h2V3h2v2h2V3h2v4H23V3z M29,9h6v2.178   C34.015,11.065,33.015,11,32,11s-2.015,0.065-3,0.178V9z M32,61C18.767,61,8,50.233,8,37s10.767-24,24-24s24,10.767,24,24   S45.233,61,32,61z"/><path d="M32,15c-12.131,0-22,9.869-22,22s9.869,22,22,22c5.219,0,10.28-1.86,14.25-5.238l-1.296-1.523   C41.345,55.309,36.745,57,32,57c-11.028,0-20-8.972-20-20c0-10.691,8.438-19.423,19-19.949V19h-3v4.286   c-3.849,0.955-6.73,4.247-6.981,8.117c-0.163,2.52,0.694,4.917,2.414,6.751C25.128,39.963,27.522,41,30,41h3.893   c0.537,0,1.017,0.362,1.093,0.824c0.049,0.304-0.03,0.596-0.224,0.823C34.572,42.871,34.294,43,34,43h-4c-0.551,0-1-0.448-1-1v-1   h-8v1c0,4.227,2.953,7.852,7,8.77V55h8v-4.286c3.849-0.955,6.73-4.247,6.981-8.117c0.104-1.606-0.225-3.185-0.927-4.597h9.897   c-0.241,4.891-2.216,9.476-5.666,12.997l1.429,1.4C51.768,48.26,54,42.792,54,37C54,24.869,44.131,15,32,15z M51.949,36H33V17.051   C43.229,17.56,51.44,25.771,51.949,36z M31,33h-0.893c-0.537,0-1.017-0.362-1.093-0.824c-0.049-0.304,0.03-0.596,0.224-0.823   C29.428,31.129,29.706,31,30,31h1V33z M40.985,42.468c-0.208,3.22-2.789,5.928-6.136,6.438L34,49.035V53h-4v-3.952l-0.876-0.109   c-3.155-0.395-5.609-2.868-6.052-5.938h4.1c0.413,1.164,1.525,2,2.829,2h4c0.881,0,1.714-0.385,2.286-1.057s0.817-1.561,0.674-2.44   C36.727,40.076,35.409,39,33.893,39H30c-1.956,0-3.77-0.786-5.108-2.214c-1.337-1.427-2.004-3.292-1.877-5.254   c0.208-3.22,2.789-5.928,6.136-6.438L30,24.965V21h1v8h-1c-0.881,0-1.714,0.385-2.286,1.057s-0.817,1.561-0.674,2.44   C27.273,33.924,28.591,35,30.107,35H31v3h8.737C40.644,39.299,41.089,40.865,40.985,42.468z"/><path d="M43.789,31.538l-2.593-0.518l-0.393,1.961l5.749,1.149l2.342-4.683l-1.789-0.895l-1.302,2.605   c-1.88-4.448-5.808-7.759-10.589-8.804l-0.428,1.953C38.786,25.182,42.099,27.885,43.789,31.538z"/></g><text x="0" y="79" fill="#000000" font-size="5px" font-weight="bold" font-family="'Helvetica Neue', Helvetica, Arial-Unicode, Arial, Sans-serif">Created by Eucalyp</text><text x="0" y="84" fill="#000000" font-size="5px" font-weight="bold" font-family="'Helvetica Neue', Helvetica, Arial-Unicode, Arial, Sans-serif">from the Noun Project</text></svg>